<svg width="74" height="28" viewBox="0 0 74 28" fill="none" xmlns="http://www.w3.org/2000/svg">
<g clip-path="url(#clip0_1281_19522)">
<g filter="url(#filter0_d_1281_19522)">
<path d="M43.775 5.18193L43.5674 22.6538L8.62993 23.0708L2.91077 14.4058L8.83951 5.60105L43.775 5.18193Z" fill="#34EBC9"/>
</g>
<path d="M20.5907 17.748L20.2127 16.551H18.1157L17.7377 17.748H16.6667L18.7097 11.628H19.6637L21.7157 17.748H20.5907ZM18.7007 14.679L18.4217 15.561H19.8977L19.6187 14.679L19.1687 13.131L18.7007 14.679ZM22.576 16.461V11.088L23.611 11.088V16.461C23.611 16.551 23.632 16.638 23.674 16.722C23.722 16.8 23.812 16.839 23.944 16.839H24.088V17.793H23.836C23.494 17.793 23.233 17.727 23.053 17.595C22.873 17.463 22.747 17.295 22.675 17.091C22.609 16.887 22.576 16.677 22.576 16.461ZM27.8353 17.595C27.6793 17.667 27.4993 17.724 27.2953 17.766C27.0913 17.814 26.8843 17.838 26.6743 17.838C26.3263 17.838 26.0473 17.766 25.8373 17.622C25.6273 17.478 25.4743 17.277 25.3783 17.019C25.2883 16.761 25.2433 16.467 25.2433 16.137V14.085H24.5053V13.185H25.2433V11.997H26.2783V13.185H27.7003V14.085H26.2783V16.137C26.2783 16.413 26.3293 16.605 26.4313 16.713C26.5393 16.815 26.6923 16.866 26.8903 16.866C26.9863 16.866 27.0883 16.857 27.1963 16.839C27.3103 16.815 27.4363 16.776 27.5743 16.722L27.8353 17.595ZM32.1234 17.793C31.8174 17.793 31.5714 17.73 31.3854 17.604C31.2054 17.478 31.0734 17.322 30.9894 17.136C30.7314 17.376 30.4824 17.553 30.2424 17.667C30.0024 17.781 29.7444 17.838 29.4684 17.838C29.0664 17.838 28.7694 17.709 28.5774 17.451C28.3914 17.193 28.2984 16.866 28.2984 16.47C28.2984 16.206 28.3464 15.975 28.4424 15.777C28.5444 15.573 28.7094 15.414 28.9374 15.3C29.1654 15.186 29.4774 15.129 29.8734 15.129C30.0294 15.129 30.1914 15.141 30.3594 15.165C30.5274 15.183 30.6954 15.207 30.8634 15.237V14.706C30.8634 14.454 30.7944 14.283 30.6564 14.193C30.5184 14.097 30.3324 14.049 30.0984 14.049C29.9184 14.049 29.7204 14.073 29.5044 14.121C29.2944 14.169 29.0664 14.244 28.8204 14.346L28.5234 13.464C29.1294 13.218 29.6784 13.095 30.1704 13.095C30.6144 13.095 30.9564 13.17 31.1964 13.32C31.4424 13.47 31.6134 13.668 31.7094 13.914C31.8054 14.16 31.8534 14.424 31.8534 14.706V16.461C31.8534 16.551 31.8774 16.638 31.9254 16.722C31.9794 16.8 32.0814 16.839 32.2314 16.839H32.3304V17.793H32.1234ZM29.2974 16.452C29.2974 16.614 29.3334 16.743 29.4054 16.839C29.4774 16.929 29.5824 16.974 29.7204 16.974C29.8584 16.974 30.0144 16.938 30.1884 16.866C30.3624 16.794 30.5874 16.626 30.8634 16.362V15.975C30.5514 15.921 30.2454 15.894 29.9454 15.894C29.7114 15.894 29.5434 15.942 29.4414 16.038C29.3454 16.134 29.2974 16.272 29.2974 16.452Z" fill="#0E3D34"/>
<g filter="url(#filter1_d_1281_19522)">
<path d="M46.3278 4.79326C46.3305 4.40015 46.4116 4.00771 46.5662 3.63884C46.7209 3.26997 46.9461 2.93204 47.2286 2.6448C47.5111 2.35756 47.8454 2.12673 48.2118 1.96581C48.5782 1.80488 48.9695 1.71707 49.3629 1.7075C49.7562 1.69793 50.1437 1.76679 50.5027 1.91006C50.8618 2.05334 51.1852 2.26816 51.4541 2.54199C51.7229 2.81582 51.9319 3.14317 52.0688 3.50495C52.2057 3.86673 52.2677 4.25569 52.2513 4.64913L52.1072 10.5727L63.9564 10.2823C63.9758 9.49647 64.3066 8.73538 64.8759 8.16642C65.4453 7.59745 66.2066 7.26722 66.9924 7.24838C67.7781 7.22954 68.524 7.52362 69.0659 8.06594C69.6079 8.60826 69.9014 9.35439 69.882 10.1402L69.7379 16.0637C69.719 16.8495 69.3888 17.6108 68.8198 18.1802C68.2509 18.7495 67.4898 19.0803 66.704 19.0997C65.9182 19.1191 65.1721 18.8255 64.6298 18.2836C64.0874 17.7417 63.7933 16.9958 63.8122 16.21L51.9631 16.4962L51.8189 22.4197C51.7865 23.1967 51.4506 23.9446 50.8833 24.5025C50.3161 25.0604 49.5631 25.3837 48.7863 25.4026C48.0096 25.4215 47.2714 25.1345 46.7307 24.6036C46.19 24.0726 45.89 23.3401 45.8954 22.5639L46.3278 4.79326Z" fill="#1C8370"/>
</g>
</g>
<defs>
<filter id="filter0_d_1281_19522" x="-1.08911" y="5.18164" width="48.864" height="25.8896" filterUnits="userSpaceOnUse" color-interpolation-filters="sRGB">
<feFlood flood-opacity="0" result="BackgroundImageFix"/>
<feColorMatrix in="SourceAlpha" type="matrix" values="0 0 0 0 0 0 0 0 0 0 0 0 0 0 0 0 0 0 127 0" result="hardAlpha"/>
<feOffset dy="4"/>
<feGaussianBlur stdDeviation="2"/>
<feComposite in2="hardAlpha" operator="out"/>
<feColorMatrix type="matrix" values="0 0 0 0 0 0 0 0 0 0 0 0 0 0 0 0 0 0 0.25 0"/>
<feBlend mode="normal" in2="BackgroundImageFix" result="effect1_dropShadow_1281_19522"/>
<feBlend mode="normal" in="SourceGraphic" in2="effect1_dropShadow_1281_19522" result="shape"/>
</filter>
<filter id="filter1_d_1281_19522" x="41.8955" y="1.70703" width="31.9873" height="31.6963" filterUnits="userSpaceOnUse" color-interpolation-filters="sRGB">
<feFlood flood-opacity="0" result="BackgroundImageFix"/>
<feColorMatrix in="SourceAlpha" type="matrix" values="0 0 0 0 0 0 0 0 0 0 0 0 0 0 0 0 0 0 127 0" result="hardAlpha"/>
<feOffset dy="4"/>
<feGaussianBlur stdDeviation="2"/>
<feComposite in2="hardAlpha" operator="out"/>
<feColorMatrix type="matrix" values="0 0 0 0 0 0 0 0 0 0 0 0 0 0 0 0 0 0 0.25 0"/>
<feBlend mode="normal" in2="BackgroundImageFix" result="effect1_dropShadow_1281_19522"/>
<feBlend mode="normal" in="SourceGraphic" in2="effect1_dropShadow_1281_19522" result="shape"/>
</filter>
<clipPath id="clip0_1281_19522">
<rect width="74" height="28" fill="white"/>
</clipPath>
</defs>
</svg>