<svg width="74" height="28" viewBox="0 0 74 28" fill="none" xmlns="http://www.w3.org/2000/svg">
<g clip-path="url(#clip0_1307_13496)">
<g filter="url(#filter0_d_1307_13496)">
<path d="M43.775 5.18193L43.5674 22.6538L8.62993 23.0708L2.91077 14.4058L8.83951 5.60105L43.775 5.18193Z" fill="#B16850"/>
</g>
<path d="M16.924 17.748V11.628H18.787C19.243 11.628 19.603 11.694 19.867 11.826C20.137 11.958 20.329 12.144 20.443 12.384C20.563 12.624 20.623 12.906 20.623 13.23V13.482C20.623 13.956 20.419 14.319 20.011 14.571C20.299 14.685 20.518 14.85 20.668 15.066C20.818 15.282 20.893 15.54 20.893 15.84V16.092C20.893 16.422 20.833 16.713 20.713 16.965C20.593 17.211 20.395 17.403 20.119 17.541C19.843 17.679 19.474 17.748 19.012 17.748H16.924ZM18.787 12.618H18.004V14.148H18.787C19.027 14.148 19.207 14.094 19.327 13.986C19.453 13.872 19.516 13.719 19.516 13.527V13.23C19.516 13.038 19.453 12.888 19.327 12.78C19.207 12.672 19.027 12.618 18.787 12.618ZM19.012 15.138H18.004V16.758H19.012C19.264 16.758 19.456 16.698 19.588 16.578C19.72 16.458 19.786 16.296 19.786 16.092V15.795C19.786 15.591 19.72 15.432 19.588 15.318C19.456 15.198 19.264 15.138 19.012 15.138ZM25.5096 17.793C25.2036 17.793 24.9576 17.73 24.7716 17.604C24.5916 17.478 24.4596 17.322 24.3756 17.136C24.1176 17.376 23.8686 17.553 23.6286 17.667C23.3886 17.781 23.1306 17.838 22.8546 17.838C22.4526 17.838 22.1556 17.709 21.9636 17.451C21.7776 17.193 21.6846 16.866 21.6846 16.47C21.6846 16.206 21.7326 15.975 21.8286 15.777C21.9306 15.573 22.0956 15.414 22.3236 15.3C22.5516 15.186 22.8636 15.129 23.2596 15.129C23.4156 15.129 23.5776 15.141 23.7456 15.165C23.9136 15.183 24.0816 15.207 24.2496 15.237V14.706C24.2496 14.454 24.1806 14.283 24.0426 14.193C23.9046 14.097 23.7186 14.049 23.4846 14.049C23.3046 14.049 23.1066 14.073 22.8906 14.121C22.6806 14.169 22.4526 14.244 22.2066 14.346L21.9096 13.464C22.5156 13.218 23.0646 13.095 23.5566 13.095C24.0006 13.095 24.3426 13.17 24.5826 13.32C24.8286 13.47 24.9996 13.668 25.0956 13.914C25.1916 14.16 25.2396 14.424 25.2396 14.706V16.461C25.2396 16.551 25.2636 16.638 25.3116 16.722C25.3656 16.8 25.4676 16.839 25.6176 16.839H25.7166V17.793H25.5096ZM22.6836 16.452C22.6836 16.614 22.7196 16.743 22.7916 16.839C22.8636 16.929 22.9686 16.974 23.1066 16.974C23.2446 16.974 23.4006 16.938 23.5746 16.866C23.7486 16.794 23.9736 16.626 24.2496 16.362V15.975C23.9376 15.921 23.6316 15.894 23.3316 15.894C23.0976 15.894 22.9296 15.942 22.8276 16.038C22.7316 16.134 22.6836 16.272 22.6836 16.452ZM27.6772 12.321H26.5882V11.25H27.6772V12.321ZM25.6792 19.755V18.783C25.9792 18.783 26.2102 18.711 26.3722 18.567C26.5342 18.423 26.6152 18.162 26.6152 17.784V13.185H27.6502V17.784C27.6502 18.126 27.5932 18.447 27.4792 18.747C27.3712 19.047 27.1732 19.29 26.8852 19.476C26.6032 19.662 26.2012 19.755 25.6792 19.755ZM32.5321 17.793C32.2261 17.793 31.9801 17.73 31.7941 17.604C31.6141 17.478 31.4821 17.322 31.3981 17.136C31.1401 17.376 30.8911 17.553 30.6511 17.667C30.4111 17.781 30.1531 17.838 29.8771 17.838C29.4751 17.838 29.1781 17.709 28.9861 17.451C28.8001 17.193 28.7071 16.866 28.7071 16.47C28.7071 16.206 28.7551 15.975 28.8511 15.777C28.9531 15.573 29.1181 15.414 29.3461 15.3C29.5741 15.186 29.8861 15.129 30.2821 15.129C30.4381 15.129 30.6001 15.141 30.7681 15.165C30.9361 15.183 31.1041 15.207 31.2721 15.237V14.706C31.2721 14.454 31.2031 14.283 31.0651 14.193C30.9271 14.097 30.7411 14.049 30.5071 14.049C30.3271 14.049 30.1291 14.073 29.9131 14.121C29.7031 14.169 29.4751 14.244 29.2291 14.346L28.9321 13.464C29.5381 13.218 30.0871 13.095 30.5791 13.095C31.0231 13.095 31.3651 13.17 31.6051 13.32C31.8511 13.47 32.0221 13.668 32.1181 13.914C32.2141 14.16 32.2621 14.424 32.2621 14.706V16.461C32.2621 16.551 32.2861 16.638 32.3341 16.722C32.3881 16.8 32.4901 16.839 32.6401 16.839H32.7391V17.793H32.5321ZM29.7061 16.452C29.7061 16.614 29.7421 16.743 29.8141 16.839C29.8861 16.929 29.9911 16.974 30.1291 16.974C30.2671 16.974 30.4231 16.938 30.5971 16.866C30.7711 16.794 30.9961 16.626 31.2721 16.362V15.975C30.9601 15.921 30.6541 15.894 30.3541 15.894C30.1201 15.894 29.9521 15.942 29.8501 16.038C29.7541 16.134 29.7061 16.272 29.7061 16.452Z" fill="#2E1A13"/>
<g filter="url(#filter1_d_1307_13496)">
<path d="M46.3278 4.79326C46.3305 4.40015 46.4116 4.00771 46.5662 3.63884C46.7209 3.26997 46.9461 2.93204 47.2286 2.6448C47.5111 2.35756 47.8454 2.12673 48.2118 1.96581C48.5782 1.80488 48.9695 1.71707 49.3629 1.7075C49.7562 1.69793 50.1437 1.76679 50.5027 1.91006C50.8618 2.05334 51.1852 2.26816 51.4541 2.54199C51.7229 2.81582 51.9319 3.14317 52.0688 3.50495C52.2057 3.86673 52.2677 4.25569 52.2513 4.64913L52.1072 10.5727L63.9564 10.2823C63.9758 9.49647 64.3066 8.73538 64.8759 8.16642C65.4453 7.59745 66.2066 7.26722 66.9924 7.24838C67.7781 7.22954 68.524 7.52362 69.0659 8.06594C69.6079 8.60826 69.9014 9.35439 69.882 10.1402L69.7379 16.0637C69.719 16.8495 69.3888 17.6108 68.8198 18.1802C68.2509 18.7495 67.4898 19.0803 66.704 19.0997C65.9182 19.1191 65.1721 18.8255 64.6298 18.2836C64.0874 17.7417 63.7933 16.9958 63.8122 16.21L51.9631 16.4962L51.8189 22.4197C51.7865 23.1967 51.4506 23.9446 50.8833 24.5025C50.3161 25.0604 49.5631 25.3837 48.7863 25.4026C48.0096 25.4215 47.2714 25.1345 46.7307 24.6036C46.19 24.0726 45.89 23.3401 45.8954 22.5639L46.3278 4.79326Z" fill="#552F22"/>
</g>
</g>
<defs>
<filter id="filter0_d_1307_13496" x="-1.08936" y="5.18164" width="48.8643" height="25.8896" filterUnits="userSpaceOnUse" color-interpolation-filters="sRGB">
<feFlood flood-opacity="0" result="BackgroundImageFix"/>
<feColorMatrix in="SourceAlpha" type="matrix" values="0 0 0 0 0 0 0 0 0 0 0 0 0 0 0 0 0 0 127 0" result="hardAlpha"/>
<feOffset dy="4"/>
<feGaussianBlur stdDeviation="2"/>
<feComposite in2="hardAlpha" operator="out"/>
<feColorMatrix type="matrix" values="0 0 0 0 0 0 0 0 0 0 0 0 0 0 0 0 0 0 0.25 0"/>
<feBlend mode="normal" in2="BackgroundImageFix" result="effect1_dropShadow_1307_13496"/>
<feBlend mode="normal" in="SourceGraphic" in2="effect1_dropShadow_1307_13496" result="shape"/>
</filter>
<filter id="filter1_d_1307_13496" x="41.8955" y="1.70703" width="31.9873" height="31.6963" filterUnits="userSpaceOnUse" color-interpolation-filters="sRGB">
<feFlood flood-opacity="0" result="BackgroundImageFix"/>
<feColorMatrix in="SourceAlpha" type="matrix" values="0 0 0 0 0 0 0 0 0 0 0 0 0 0 0 0 0 0 127 0" result="hardAlpha"/>
<feOffset dy="4"/>
<feGaussianBlur stdDeviation="2"/>
<feComposite in2="hardAlpha" operator="out"/>
<feColorMatrix type="matrix" values="0 0 0 0 0 0 0 0 0 0 0 0 0 0 0 0 0 0 0.25 0"/>
<feBlend mode="normal" in2="BackgroundImageFix" result="effect1_dropShadow_1307_13496"/>
<feBlend mode="normal" in="SourceGraphic" in2="effect1_dropShadow_1307_13496" result="shape"/>
</filter>
<clipPath id="clip0_1307_13496">
<rect width="74" height="28" fill="white"/>
</clipPath>
</defs>
</svg>