<svg width="74" height="28" viewBox="0 0 74 28" fill="none" xmlns="http://www.w3.org/2000/svg">
<g clip-path="url(#clip0_1281_19521)">
<g filter="url(#filter0_d_1281_19521)">
<path d="M43.775 5.18193L43.5674 22.6538L8.62993 23.0708L2.91077 14.4058L8.83951 5.60105L43.775 5.18193Z" fill="#8D8D8D"/>
</g>
<path d="M14.3984 11.628L16.1084 15.813L17.8094 11.628H18.9884V17.748H17.9534V15.408L18.0884 13.266L16.5674 17.028H15.6044L14.1194 13.257L14.2544 15.408V17.748H13.2194V11.628H14.3984ZM24.0113 17.487C23.6993 17.613 23.4053 17.703 23.1293 17.757C22.8533 17.811 22.5923 17.838 22.3463 17.838C21.6683 17.838 21.1553 17.646 20.8073 17.262C20.4593 16.878 20.2853 16.368 20.2853 15.732V15.192C20.2853 14.766 20.3633 14.397 20.5193 14.085C20.6753 13.773 20.8973 13.53 21.1853 13.356C21.4733 13.182 21.8123 13.095 22.2023 13.095C22.5203 13.095 22.8173 13.161 23.0933 13.293C23.3753 13.419 23.6033 13.62 23.7773 13.896C23.9573 14.166 24.0473 14.514 24.0473 14.94C24.0473 15.066 24.0383 15.201 24.0203 15.345C24.0023 15.483 23.9723 15.63 23.9303 15.786H21.2843C21.2963 16.158 21.3893 16.437 21.5633 16.623C21.7373 16.809 22.0163 16.902 22.4003 16.902C22.6043 16.902 22.8143 16.878 23.0303 16.83C23.2523 16.782 23.4803 16.71 23.7143 16.614L24.0113 17.487ZM22.2023 13.968C21.9263 13.968 21.7103 14.058 21.5543 14.238C21.4043 14.412 21.3173 14.664 21.2933 14.994H23.0213C23.0273 14.964 23.0303 14.937 23.0303 14.913C23.0303 14.883 23.0303 14.856 23.0303 14.832C23.0303 14.544 22.9493 14.328 22.7873 14.184C22.6253 14.04 22.4303 13.968 22.2023 13.968ZM27.9127 17.748V17.127C27.6367 17.403 27.3967 17.592 27.1927 17.694C26.9947 17.79 26.7877 17.838 26.5717 17.838C26.0797 17.838 25.6957 17.652 25.4197 17.28C25.1497 16.908 25.0147 16.386 25.0147 15.714V15.228C25.0147 14.574 25.1797 14.055 25.5097 13.671C25.8397 13.287 26.3167 13.095 26.9407 13.095C27.0967 13.095 27.2497 13.11 27.3997 13.14C27.5557 13.17 27.7087 13.212 27.8587 13.266V11.088H28.8937V17.748H27.9127ZM26.0767 15.714C26.0767 16.116 26.1427 16.41 26.2747 16.596C26.4127 16.782 26.6047 16.875 26.8507 16.875C26.9887 16.875 27.1357 16.836 27.2917 16.758C27.4477 16.674 27.6367 16.518 27.8587 16.29V14.202C27.5647 14.082 27.2947 14.022 27.0487 14.022C26.7007 14.022 26.4517 14.13 26.3017 14.346C26.1517 14.562 26.0767 14.856 26.0767 15.228V15.714ZM31.3817 12.321H30.2927V11.25H31.3817V12.321ZM31.3547 17.748H30.3197V13.185H31.3547V17.748ZM36.2367 17.793C35.9307 17.793 35.6847 17.73 35.4987 17.604C35.3187 17.478 35.1867 17.322 35.1027 17.136C34.8447 17.376 34.5957 17.553 34.3557 17.667C34.1157 17.781 33.8577 17.838 33.5817 17.838C33.1797 17.838 32.8827 17.709 32.6907 17.451C32.5047 17.193 32.4117 16.866 32.4117 16.47C32.4117 16.206 32.4597 15.975 32.5557 15.777C32.6577 15.573 32.8227 15.414 33.0507 15.3C33.2787 15.186 33.5907 15.129 33.9867 15.129C34.1427 15.129 34.3047 15.141 34.4727 15.165C34.6407 15.183 34.8087 15.207 34.9767 15.237V14.706C34.9767 14.454 34.9077 14.283 34.7697 14.193C34.6317 14.097 34.4457 14.049 34.2117 14.049C34.0317 14.049 33.8337 14.073 33.6177 14.121C33.4077 14.169 33.1797 14.244 32.9337 14.346L32.6367 13.464C33.2427 13.218 33.7917 13.095 34.2837 13.095C34.7277 13.095 35.0697 13.17 35.3097 13.32C35.5557 13.47 35.7267 13.668 35.8227 13.914C35.9187 14.16 35.9667 14.424 35.9667 14.706V16.461C35.9667 16.551 35.9907 16.638 36.0387 16.722C36.0927 16.8 36.1947 16.839 36.3447 16.839H36.4437V17.793H36.2367ZM33.4107 16.452C33.4107 16.614 33.4467 16.743 33.5187 16.839C33.5907 16.929 33.6957 16.974 33.8337 16.974C33.9717 16.974 34.1277 16.938 34.3017 16.866C34.4757 16.794 34.7007 16.626 34.9767 16.362V15.975C34.6647 15.921 34.3587 15.894 34.0587 15.894C33.8247 15.894 33.6567 15.942 33.5547 16.038C33.4587 16.134 33.4107 16.272 33.4107 16.452Z" fill="white"/>
<g filter="url(#filter1_d_1281_19521)">
<path d="M46.3278 4.79326C46.3305 4.40015 46.4116 4.00771 46.5662 3.63884C46.7209 3.26997 46.9461 2.93205 47.2286 2.6448C47.5111 2.35756 47.8454 2.12673 48.2118 1.96581C48.5782 1.80488 48.9695 1.71707 49.3629 1.7075C49.7562 1.69793 50.1437 1.76679 50.5027 1.91006C50.8618 2.05334 51.1852 2.26816 51.4541 2.54199C51.7229 2.81582 51.9319 3.14317 52.0688 3.50495C52.2057 3.86673 52.2677 4.25569 52.2513 4.64913L52.1072 10.5727L63.9564 10.2823C63.9758 9.49647 64.3066 8.73538 64.8759 8.16642C65.4453 7.59745 66.2066 7.26722 66.9924 7.24838C67.7781 7.22954 68.524 7.52362 69.0659 8.06594C69.6079 8.60826 69.9014 9.35439 69.882 10.1402L69.7379 16.0637C69.719 16.8495 69.3888 17.6108 68.8198 18.1802C68.2509 18.7495 67.4898 19.0803 66.704 19.0997C65.9182 19.1191 65.1721 18.8255 64.6298 18.2836C64.0874 17.7417 63.7933 16.9958 63.8122 16.21L51.9631 16.4962L51.8189 22.4197C51.7865 23.1967 51.4506 23.9446 50.8833 24.5025C50.3161 25.0604 49.5631 25.3837 48.7863 25.4026C48.0096 25.4215 47.2714 25.1345 46.7307 24.6036C46.19 24.0726 45.89 23.3401 45.8954 22.5639L46.3278 4.79326Z" fill="#DEDEDE"/>
</g>
</g>
<defs>
<filter id="filter0_d_1281_19521" x="-1.08911" y="5.18164" width="48.864" height="25.8896" filterUnits="userSpaceOnUse" color-interpolation-filters="sRGB">
<feFlood flood-opacity="0" result="BackgroundImageFix"/>
<feColorMatrix in="SourceAlpha" type="matrix" values="0 0 0 0 0 0 0 0 0 0 0 0 0 0 0 0 0 0 127 0" result="hardAlpha"/>
<feOffset dy="4"/>
<feGaussianBlur stdDeviation="2"/>
<feComposite in2="hardAlpha" operator="out"/>
<feColorMatrix type="matrix" values="0 0 0 0 0 0 0 0 0 0 0 0 0 0 0 0 0 0 0.25 0"/>
<feBlend mode="normal" in2="BackgroundImageFix" result="effect1_dropShadow_1281_19521"/>
<feBlend mode="normal" in="SourceGraphic" in2="effect1_dropShadow_1281_19521" result="shape"/>
</filter>
<filter id="filter1_d_1281_19521" x="41.8955" y="1.70703" width="31.9873" height="31.6963" filterUnits="userSpaceOnUse" color-interpolation-filters="sRGB">
<feFlood flood-opacity="0" result="BackgroundImageFix"/>
<feColorMatrix in="SourceAlpha" type="matrix" values="0 0 0 0 0 0 0 0 0 0 0 0 0 0 0 0 0 0 127 0" result="hardAlpha"/>
<feOffset dy="4"/>
<feGaussianBlur stdDeviation="2"/>
<feComposite in2="hardAlpha" operator="out"/>
<feColorMatrix type="matrix" values="0 0 0 0 0 0 0 0 0 0 0 0 0 0 0 0 0 0 0.25 0"/>
<feBlend mode="normal" in2="BackgroundImageFix" result="effect1_dropShadow_1281_19521"/>
<feBlend mode="normal" in="SourceGraphic" in2="effect1_dropShadow_1281_19521" result="shape"/>
</filter>
<clipPath id="clip0_1281_19521">
<rect width="74" height="28" fill="white"/>
</clipPath>
</defs>
</svg>