<svg width="28" height="28" viewBox="0 0 28 28" fill="none" xmlns="http://www.w3.org/2000/svg">
<circle cx="14" cy="14" r="13.25" fill="white" fill-opacity="0.12" stroke="white" stroke-width="1.5" stroke-linecap="round" stroke-dasharray="5 5"/>
<path d="M13.264 10.672C12.9013 10.672 12.5227 10.72 12.128 10.816C11.7333 10.912 11.2747 11.0667 10.752 11.28L10.16 9.696C10.768 9.41867 11.3387 9.22667 11.872 9.12C12.416 9.01333 12.9227 8.96 13.392 8.96C14.2133 8.96 14.8693 9.08267 15.36 9.328C15.8613 9.57333 16.224 9.90933 16.448 10.336C16.672 10.752 16.784 11.232 16.784 11.776V12.064C16.784 12.6293 16.6987 13.12 16.528 13.536C16.3573 13.9413 16.0587 14.336 15.632 14.72L15.056 15.248C14.704 15.568 14.496 15.8293 14.432 16.032C14.368 16.224 14.336 16.4373 14.336 16.672V16.816H12.416V16.528C12.416 16.1227 12.48 15.7493 12.608 15.408C12.736 15.0667 13.04 14.6773 13.52 14.24L14.112 13.696C14.4213 13.408 14.6293 13.1573 14.736 12.944C14.8427 12.7307 14.896 12.4907 14.896 12.224V11.936C14.896 11.5627 14.7733 11.2587 14.528 11.024C14.2827 10.7893 13.8613 10.672 13.264 10.672ZM14.352 20H12.416V18.096H14.352V20Z" fill="white"/>
</svg>
