<svg width="201" height="203" viewBox="0 0 201 203" fill="none" xmlns="http://www.w3.org/2000/svg">
<path d="M145.735 38.0005C147.588 46.6555 143.249 54.0332 137.971 56.5902C127.606 46.4751 113.441 40.2393 97.8333 40.2393C66.1068 40.2393 40.3366 66.0094 40.3366 97.736C40.3371 100.845 40.5887 103.95 41.0888 107.019C42.3996 101.203 43.9432 95.6157 45.6541 90.2035C45.6546 90.2014 45.6531 90.1984 45.6541 90.1958C49.3052 64.6339 71.2516 45.0203 97.8328 45.0203C111.841 45.0203 124.562 50.4701 133.997 59.3648C133.51 61.3083 132.865 63.3572 132.086 65.4734C123.674 56.7755 111.898 51.3525 98.8644 51.3525C76.7019 51.3525 58.1534 67.0019 53.6651 87.8368L54.6246 89.8274C57.2131 85.4796 59.9157 81.3265 62.6923 77.3066C69.7873 64.6646 83.3141 56.1343 98.8644 56.1343C111.343 56.1343 122.515 61.625 130.111 70.3263C129.208 72.361 128.235 74.3637 127.193 76.3308C120.799 67.6045 110.488 61.9228 98.8642 61.9228C83.2834 61.9228 70.0416 72.125 65.4592 86.1975L65.5549 86.701C69.1522 83.0243 72.8289 79.6506 76.5568 76.4667C82.0975 70.4616 90.0322 66.7038 98.8647 66.7038C109.726 66.7038 119.237 72.3865 124.594 80.9442C120.825 87.2527 116.358 93.1717 111.769 97.5674L106.924 93.8252L104.006 97.6155L109.931 102.189L97.9771 117.644L101.759 120.571L113.721 105.115L119.654 109.696L122.572 105.907L117.215 101.773C120.257 96.3718 126.273 94.1048 129.016 97.975C148.189 84.7348 175.07 64.2315 145.735 38L145.735 38.0005ZM94.9626 77.8189L83.0011 93.282L77.0685 88.7006L74.1502 92.4822L79.5071 96.6245C76.465 102.026 70.4492 104.292 67.7059 100.422C48.5331 113.662 21.652 134.165 50.9867 160.397C48.9603 150.935 54.3352 143.001 60.2458 141.223C70.3292 149.948 83.4707 155.231 97.8331 155.231C129.56 155.231 155.33 129.461 155.33 97.7355C155.33 94.8305 155.115 91.9779 154.698 89.188C153.28 95.3522 151.599 101.252 149.741 106.97C145.382 131.699 123.825 150.45 97.8333 150.45C84.5435 150.45 72.4145 145.547 63.1485 137.449C63.8322 135.051 64.7302 132.517 65.811 129.918C74.2088 138.506 85.9226 143.838 98.8649 143.838C120.101 143.838 138.02 129.473 143.432 109.945L142.057 107.083C139.365 111.643 136.553 115.988 133.653 120.188C126.264 131.552 113.453 139.057 98.8642 139.057C86.5573 139.057 75.517 133.718 67.9295 125.225C68.9853 123.047 70.1188 120.908 71.3278 118.812C77.7665 126.94 87.7131 132.165 98.8647 132.165C113.096 132.165 125.368 123.659 130.879 111.464L130.375 108.849C127.187 112.186 123.936 115.279 120.637 118.196C115.128 123.866 107.415 127.383 98.8649 127.383C88.5628 127.383 79.481 122.272 73.9985 114.446C77.338 109.278 81.0917 104.512 84.9441 100.822L89.7978 104.572L92.7161 100.783L86.7835 96.2006L98.7449 80.7451L94.9626 77.8189Z" fill="#F1850A"/>
<g filter="url(#filter0_dd_1344_15822)">
<path d="M145.735 38.0005C147.588 46.6555 143.249 54.0332 137.971 56.5902C127.606 46.4751 113.441 40.2393 97.8333 40.2393C66.1068 40.2393 40.3366 66.0094 40.3366 97.736C40.3371 100.845 40.5887 103.95 41.0888 107.019C42.3996 101.203 43.9432 95.6157 45.6541 90.2035C45.6546 90.2014 45.6531 90.1984 45.6541 90.1958C49.3052 64.6339 71.2516 45.0203 97.8328 45.0203C111.841 45.0203 124.562 50.4701 133.997 59.3648C133.51 61.3083 132.865 63.3572 132.086 65.4734C123.674 56.7755 111.898 51.3525 98.8644 51.3525C76.7019 51.3525 58.1534 67.0019 53.6651 87.8368L54.6246 89.8274C57.2131 85.4796 59.9157 81.3265 62.6923 77.3066C69.7873 64.6646 83.3141 56.1343 98.8644 56.1343C111.343 56.1343 122.515 61.625 130.111 70.3263C129.208 72.361 128.235 74.3637 127.193 76.3308C120.799 67.6045 110.488 61.9228 98.8642 61.9228C83.2834 61.9228 70.0416 72.125 65.4592 86.1975L65.5549 86.701C69.1522 83.0243 72.8289 79.6506 76.5568 76.4667C82.0975 70.4616 90.0322 66.7038 98.8647 66.7038C109.726 66.7038 119.237 72.3865 124.594 80.9442C120.825 87.2527 116.358 93.1717 111.769 97.5674L106.924 93.8252L104.006 97.6155L109.931 102.189L97.9771 117.644L101.759 120.571L113.721 105.115L119.654 109.696L122.572 105.907L117.215 101.773C120.257 96.3718 126.273 94.1048 129.016 97.975C148.189 84.7348 175.07 64.2315 145.735 38L145.735 38.0005ZM94.9626 77.8189L83.0011 93.282L77.0685 88.7006L74.1502 92.4822L79.5071 96.6245C76.465 102.026 70.4492 104.292 67.7059 100.422C48.5331 113.662 21.652 134.165 50.9867 160.397C48.9603 150.935 54.3352 143.001 60.2458 141.223C70.3292 149.948 83.4707 155.231 97.8331 155.231C129.56 155.231 155.33 129.461 155.33 97.7355C155.33 94.8305 155.115 91.9779 154.698 89.188C153.28 95.3522 151.599 101.252 149.741 106.97C145.382 131.699 123.825 150.45 97.8333 150.45C84.5435 150.45 72.4145 145.547 63.1485 137.449C63.8322 135.051 64.7302 132.517 65.811 129.918C74.2088 138.506 85.9226 143.838 98.8649 143.838C120.101 143.838 138.02 129.473 143.432 109.945L142.057 107.083C139.365 111.643 136.553 115.988 133.653 120.188C126.264 131.552 113.453 139.057 98.8642 139.057C86.5573 139.057 75.517 133.718 67.9295 125.225C68.9853 123.047 70.1188 120.908 71.3278 118.812C77.7665 126.94 87.7131 132.165 98.8647 132.165C113.096 132.165 125.368 123.659 130.879 111.464L130.375 108.849C127.187 112.186 123.936 115.279 120.637 118.196C115.128 123.866 107.415 127.383 98.8649 127.383C88.5628 127.383 79.481 122.272 73.9985 114.446C77.338 109.278 81.0917 104.512 84.9441 100.822L89.7978 104.572L92.7161 100.783L86.7835 96.2006L98.7449 80.7451L94.9626 77.8189Z" fill="white"/>
</g>
<defs>
<filter id="filter0_dd_1344_15822" x="0" y="0" width="200.722" height="202.396" filterUnits="userSpaceOnUse" color-interpolation-filters="sRGB">
<feFlood flood-opacity="0" result="BackgroundImageFix"/>
<feColorMatrix in="SourceAlpha" type="matrix" values="0 0 0 0 0 0 0 0 0 0 0 0 0 0 0 0 0 0 127 0" result="hardAlpha"/>
<feOffset dx="2" dy="2"/>
<feGaussianBlur stdDeviation="20"/>
<feComposite in2="hardAlpha" operator="out"/>
<feColorMatrix type="matrix" values="0 0 0 0 1 0 0 0 0 0.898039 0 0 0 0 0.533333 0 0 0 1 0"/>
<feBlend mode="normal" in2="BackgroundImageFix" result="effect1_dropShadow_1344_15822"/>
<feColorMatrix in="SourceAlpha" type="matrix" values="0 0 0 0 0 0 0 0 0 0 0 0 0 0 0 0 0 0 127 0" result="hardAlpha"/>
<feOffset dy="3"/>
<feGaussianBlur stdDeviation="0.5"/>
<feComposite in2="hardAlpha" operator="out"/>
<feColorMatrix type="matrix" values="0 0 0 0 1 0 0 0 0 0.897639 0 0 0 0 0.534722 0 0 0 0.4 0"/>
<feBlend mode="normal" in2="effect1_dropShadow_1344_15822" result="effect2_dropShadow_1344_15822"/>
<feBlend mode="normal" in="SourceGraphic" in2="effect2_dropShadow_1344_15822" result="shape"/>
</filter>
</defs>
</svg>
